<?xml version="1.0" encoding="UTF-8"?>
<svg width="398px" height="398px" viewBox="0 0 398 398" version="1.1" xmlns="http://www.w3.org/2000/svg" xmlns:xlink="http://www.w3.org/1999/xlink">
    <!-- Generator: Sketch 55.2 (78181) - https://sketchapp.com -->
    <title>App Icon</title>
    <desc>Created with Sketch.</desc>
    <g id="Page-1" stroke="none" stroke-width="1" fill="none" fill-rule="evenodd">
        <g id="Artboard" transform="translate(-215.000000, -162.000000)">
            <g id="App-Icon" transform="translate(215.000000, 162.000000)">
                <rect id="Rectangle" fill="#333E5D" x="0" y="0" width="398" height="398" rx="4"></rect>
                <g id="plus" transform="translate(271.000000, 271.000000)" fill="#FFFFFF" fill-rule="nonzero">
                    <path d="M52,22 L34,22 L34,4 C34,1.79125 32.20875,0 30,0 L26,0 C23.79125,0 22,1.79125 22,4 L22,22 L4,22 C1.79125,22 0,23.79125 0,26 L0,30 C0,32.20875 1.79125,34 4,34 L22,34 L22,52 C22,54.20875 23.79125,56 26,56 L30,56 C32.20875,56 34,54.20875 34,52 L34,34 L52,34 C54.20875,34 56,32.20875 56,30 L56,26 C56,23.79125 54.20875,22 52,22 Z" id="Path"></path>
                </g>
                <path d="M4,0 L199,0 L199,199 L0,199 L0,4 C-2.705415e-16,1.790861 1.790861,4.05812251e-16 4,0 Z" id="Rectangle" fill="#0D183A"></path>
                <g id="divide" transform="translate(72.000000, 72.000000)" fill="#FFFFFF" fill-rule="nonzero">
                    <path d="M28,40 C23.58125,40 20,43.58125 20,48 C20,52.41875 23.58125,56 28,56 C32.41875,56 36,52.41875 36,48 C36,43.58125 32.41875,40 28,40 Z M28,16 C32.41875,16 36,12.41875 36,8 C36,3.58125 32.41875,0 28,0 C23.58125,0 20,3.58125 20,8 C20,12.41875 23.58125,16 28,16 Z M52,22 L4,22 C1.79125,22 0,23.79125 0,26 L0,30 C0,32.20875 1.79125,34 4,34 L52,34 C54.20875,34 56,32.20875 56,30 L56,26 C56,23.79125 54.20875,22 52,22 Z" id="Shape"></path>
                </g>
                <path d="M203,0 L398,0 L398,199 L199,199 L199,4 C199,1.790861 200.790861,4.05812251e-16 203,0 Z" id="Rectangle" fill="#172346" transform="translate(298.500000, 99.500000) rotate(90.000000) translate(-298.500000, -99.500000) "></path>
                <g id="times" transform="translate(271.000000, 72.000000)" fill="#FFFFFF" fill-rule="nonzero">
                    <path d="M38.6145455,28 L54.5347727,12.0797727 C56.4884091,10.1261364 56.4884091,6.95863636 54.5347727,5.00340909 L50.9965909,1.46522727 C49.0429545,-0.488409091 45.8754545,-0.488409091 43.9202273,1.46522727 L28,17.3854545 L12.0797727,1.46522727 C10.1261364,-0.488409091 6.95863636,-0.488409091 5.00340909,1.46522727 L1.46522727,5.00340909 C-0.488409091,6.95704545 -0.488409091,10.1245455 1.46522727,12.0797727 L17.3854545,28 L1.46522727,43.9202273 C-0.488409091,45.8738636 -0.488409091,49.0413636 1.46522727,50.9965909 L5.00340909,54.5347727 C6.95704545,56.4884091 10.1261364,56.4884091 12.0797727,54.5347727 L28,38.6145455 L43.9202273,54.5347727 C45.8738636,56.4884091 49.0429545,56.4884091 50.9965909,54.5347727 L54.5347727,50.9965909 C56.4884091,49.0429545 56.4884091,45.8754545 54.5347727,43.9202273 L38.6145455,28 Z" id="Path"></path>
                </g>
                <path d="M0,199 L199,199 L199,398 L4,398 C1.790861,398 2.705415e-16,396.209139 0,394 L0,199 Z" id="Rectangle" fill="#111D41"></path>
                <g id="minus" transform="translate(72.000000, 291.000000)" fill="#FFFFFF" fill-rule="nonzero">
                    <path d="M52,0 L4,0 C1.79125,0 0,2.38833333 0,5.33333333 L0,10.6666667 C0,13.6116667 1.79125,16 4,16 L52,16 C54.20875,16 56,13.6116667 56,10.6666667 L56,5.33333333 C56,2.38833333 54.20875,0 52,0 Z" id="Path"></path>
                </g>
            </g>
        </g>
    </g>
</svg>