<?xml version="1.0" encoding="UTF-8"?>
<svg width="1000px" height="1000px" viewBox="0 0 1000 1000" version="1.1" xmlns="http://www.w3.org/2000/svg" xmlns:xlink="http://www.w3.org/1999/xlink">
    <!-- Generator: Sketch 55.2 (78181) - https://sketchapp.com -->
    <title>Artboard</title>
    <desc>Created with Sketch.</desc>
    <defs>
        <linearGradient x1="50%" y1="0%" x2="50%" y2="100%" id="linearGradient-1">
            <stop stop-color="#ADE2C1" offset="0%"></stop>
            <stop stop-color="#7DCC9C" offset="100%"></stop>
        </linearGradient>
    </defs>
    <g id="Artboard" stroke="none" stroke-width="1" fill="none" fill-rule="evenodd">
        <rect id="Rectangle" fill="url(#linearGradient-1)" x="0" y="0" width="1000" height="1000"></rect>
        <g id="Group-3" transform="translate(240.000000, 305.000000)" fill-rule="nonzero">
            <g id="Group-2">
                <g id="comment-dollar" fill="#0C1322">
                    <path d="M160,0 C71.6375,0 0,58.2 0,130 C0,160.975 13.38125,189.38125 35.6375,211.7125 C27.7875,243.15625 1.6875,271.23125 1.375,271.5625 C0,273.011241 -0.381035265,275.140069 0.407560646,276.975594 C1.19615656,278.811119 3.00224248,280 5,280 C46.4125,280 77.49375,260.15625 92.875,247.8875 C113.30625,255.58125 135.99375,260 160,260 C248.3625,260 320,201.8 320,130 C320,58.2 248.3625,0 160,0 Z M175,189.025 L175,200 C175,205.525 170.525,210 165,210 L155,210 C149.475,210 145,205.525 145,200 L145,188.91875 C137.8625,188.075 131.075,185.675 125.1375,181.75625 C121.25,179.1875 120.875,173.5625 124.16875,170.26875 L135.11875,159.31875 C137.45625,156.98125 140.9375,156.66875 143.9375,158.05 C145.925,158.9625 148.1,159.4375 150.35,159.4375 L170.8375,159.4375 C173.75,159.4375 176.1125,157.075 176.1125,154.175 C176.1125,151.83125 174.5375,149.75 172.2875,149.10625 L140.99375,140.16875 C127.0875,136.2 115.9875,124.725 114.175,110.375 C111.64375,90.33125 126.06875,73.23125 145,70.96875 L145,60 C145,54.475 149.475,50 155,50 L165,50 C170.525,50 175,54.475 175,60 L175,71.08125 C182.1375,71.925 188.925,74.325 194.8625,78.24375 C198.75,80.8125 199.125,86.4375 195.83125,89.73125 L184.88125,100.68125 C182.54375,103.01875 179.0625,103.33125 176.0625,101.95 C174.050251,101.029933 171.862608,100.556583 169.65,100.5625 L149.1625,100.5625 C146.25,100.5625 143.8875,102.925 143.8875,105.825 C143.8875,108.16875 145.4625,110.25 147.7125,110.89375 L179.00625,119.83125 C192.9125,123.80625 204.0125,135.275 205.825,149.625 C208.35625,169.6625 193.93125,186.7625 175,189.025 L175,189.025 Z" id="Shape"></path>
                </g>
                <g id="Group" transform="translate(201.000000, 111.000000)">
                    <g id="comment" transform="translate(160.000000, 140.000000) scale(-1, 1) translate(-160.000000, -140.000000) " fill="#FFFFFF">
                        <path d="M160,0 C71.625,0 0,58.1875 0,130 C0,161 13.375,189.375 35.625,211.6875 C27.8125,243.1875 1.6875,271.25 1.375,271.5625 C0,273 -0.375,275.125 0.4375,277 C1.25,278.875 3,280 5,280 C46.4375,280 77.5,260.125 92.875,247.875 C113.3125,255.5625 136,260 160,260 C248.375,260 320,201.8125 320,130 C320,58.1875 248.375,0 160,0 Z" id="Path"></path>
                    </g>
                    <g id="pound-sign" transform="translate(119.000000, 63.000000)" fill="#95D7AF">
                        <path d="M88.55,92.1428571 L75.4701875,92.1428571 C73.564925,92.1428571 72.0201875,93.6899933 72.0201875,95.5982143 L72.0201875,110.239714 L36.8,110.239714 L36.8,73.7142857 L60.95,73.7142857 C62.8552625,73.7142857 64.4,72.1671496 64.4,70.2589286 L64.4,58.7410714 C64.4,56.8328504 62.8552625,55.2857143 60.95,55.2857143 L36.8,55.2857143 L36.8,36.9849911 C36.8,27.6941116 43.861575,20.5472813 54.5652,20.5472813 C61.366875,20.5472813 67.755125,23.8601049 71.14015,25.9747835 C72.6210625,26.8999554 74.55795,26.5653616 75.65045,25.2016473 L83.8421875,14.9758058 C85.059175,13.4566004 84.7849,11.2310625 83.232975,10.0573929 C78.52315,6.49607143 68.0156,0 54.0301625,0 C30.482475,0 13.8,15.1868705 13.8,36.2700201 L13.8,55.2857143 L5.75,55.2857143 C3.8447375,55.2857143 2.3,56.8328504 2.3,58.7410714 L2.3,70.2589286 C2.3,72.1671496 3.8447375,73.7142857 5.75,73.7142857 L13.8,73.7142857 L13.8,110.571429 L3.45,110.571429 C1.5447375,110.571429 0,112.118565 0,114.026786 L0,125.544643 C0,127.452864 1.5447375,129 3.45,129 L88.55,129 C90.4552625,129 92,127.452864 92,125.544643 L92,95.5982143 C92,93.6899933 90.4552625,92.1428571 88.55,92.1428571 Z" id="Path"></path>
                    </g>
                </g>
            </g>
        </g>
    </g>
</svg>